<?xml version="1.0" standalone="no"?>
<!DOCTYPE svg PUBLIC "-//W3C//DTD SVG 20010904//EN"
 "http://www.w3.org/TR/2001/REC-SVG-20010904/DTD/svg10.dtd">
<svg version="1.0" xmlns="http://www.w3.org/2000/svg"
 width="256.000000pt" height="256.000000pt" viewBox="0 0 256.000000 256.000000"
 preserveAspectRatio="xMidYMid meet">
<metadata>
Created by potrace 1.14, written by Peter Selinger 2001-2017
</metadata>
<g transform="translate(0.000000,256.000000) scale(0.100000,-0.100000)"
fill="#000000" stroke="none">
<path d="M0 2065 l0 -495 42 -19 c51 -22 173 -51 217 -51 29 0 30 -1 19 -25
-8 -18 -8 -35 0 -67 7 -24 16 -71 22 -105 16 -96 17 -104 34 -158 18 -58 20
-92 3 -55 -27 58 -49 80 -78 80 -42 0 -99 -26 -99 -45 0 -12 -4 -13 -17 -7
-40 21 -113 -13 -113 -51 0 -12 4 -38 9 -57 5 -19 12 -54 15 -78 7 -53 20 -79
46 -87 11 -3 20 -14 20 -23 0 -40 36 -155 74 -237 57 -121 98 -162 158 -156 9
1 19 -8 24 -21 4 -13 49 -110 101 -216 l94 -192 995 0 994 0 0 714 c0 591 -2
715 -14 719 -7 3 -18 34 -25 69 -34 177 -95 378 -144 473 -15 28 -31 62 -38
78 -6 15 -15 27 -20 27 -5 0 -9 5 -9 11 0 16 -63 92 -125 153 -27 26 -90 76
-140 109 -49 33 -110 77 -135 97 -25 21 -64 47 -86 59 -39 21 -44 21 -88 6
-25 -9 -79 -31 -120 -50 -40 -19 -78 -35 -83 -35 -6 0 -42 -13 -80 -29 -134
-55 -270 -162 -363 -285 -45 -60 -57 -66 -40 -21 13 33 16 201 6 273 -5 29
-19 83 -32 119 -13 36 -24 68 -24 69 0 2 -225 4 -500 4 l-500 0 0 -495z m906
-327 c-3 -18 -10 -57 -17 -86 -6 -30 -12 -61 -13 -70 -2 -9 -8 -18 -14 -20
-11 -3 -162 27 -162 33 0 2 17 14 38 26 31 20 81 62 138 117 8 7 14 18 14 23
0 5 5 9 11 9 6 0 8 -13 5 -32z m-345 -215 c1 -5 2 -19 3 -33 3 -24 11 -73 21
-115 27 -125 37 -162 60 -235 24 -72 28 -105 30 -210 3 -136 8 -180 32 -254 8
-26 17 -67 19 -90 8 -93 31 -160 66 -197 7 -8 29 -33 47 -57 19 -24 51 -55 73
-68 38 -24 38 -25 21 -49 l-18 -24 -55 61 c-30 33 -99 106 -153 161 -84 87
-97 106 -92 127 3 14 8 61 11 105 3 44 12 112 19 151 16 80 15 95 -14 152 -20
40 -52 68 -102 89 -22 10 -32 28 -58 105 -35 108 -50 168 -60 258 -5 36 -11
73 -15 82 -6 14 1 18 41 24 72 10 85 13 91 19 8 8 32 6 33 -2z m1780 -1157
l17 -66 -42 36 c-22 21 -48 48 -56 60 -13 21 -12 25 5 44 29 32 56 7 76 -74z"/>
</g>
</svg>
